<svg width="800" height="400" viewBox="0 0 800 400" xmlns="http://www.w3.org/2000/svg"><mask id="satori_om-id"><rect x="0" y="0" width="800" height="400" fill="#fff"/></mask><rect x="0" y="0" width="800" height="400" fill="#0164d5"/><mask id="satori_om-id-0"><rect x="400" y="84" width="0" height="0" fill="#fff"/></mask><mask id="satori_om-id-1"><rect x="0" y="84" width="800" height="232" fill="#fff"/></mask><mask id="satori_om-id-1-0"><rect x="0" y="137" width="800" height="128" fill="#fff"/></mask><path fill="white" d="M60.7 186.3L52.8 186.3L41.8 148.0L50.7 148.0L57.0 174.6L57.3 174.6L64.3 148.0L71.9 148.0L78.9 174.7L79.2 174.7L85.6 148.0L94.4 148.0L83.4 186.3L75.6 186.3L68.3 161.2L68.0 161.2L60.7 186.3ZM124.6 186.3L98.7 186.3L98.7 148.0L124.5 148.0L124.5 154.7L106.8 154.7L106.8 163.8L123.2 163.8L123.2 170.5L106.8 170.5L106.8 179.6L124.6 179.6L124.6 186.3ZM155.5 186.3L131.0 186.3L131.0 148.0L139.1 148.0L139.1 179.6L155.5 179.6L155.5 186.3ZM193.1 161.4L193.1 161.4L185.0 161.4Q184.7 159.8 184.0 158.6Q183.3 157.3 182.3 156.4Q181.2 155.6 179.8 155.1Q178.4 154.6 176.7 154.6L176.7 154.6Q173.7 154.6 171.5 156.1Q169.3 157.6 168.1 160.4Q166.9 163.2 166.9 167.1L166.9 167.1Q166.9 171.2 168.1 174.0Q169.3 176.8 171.5 178.2Q173.8 179.6 176.6 179.6L176.6 179.6Q178.3 179.6 179.7 179.2Q181.1 178.8 182.1 178.0Q183.2 177.1 183.9 175.9Q184.7 174.7 185.0 173.2L185.0 173.2L193.1 173.2Q192.8 175.9 191.6 178.3Q190.3 180.7 188.2 182.7Q186.1 184.6 183.1 185.7Q180.2 186.8 176.5 186.8L176.5 186.8Q171.4 186.8 167.4 184.5Q163.3 182.2 161.0 177.8Q158.7 173.4 158.7 167.1L158.7 167.1Q158.7 160.9 161.0 156.5Q163.4 152.1 167.4 149.8Q171.5 147.5 176.5 147.5L176.5 147.5Q179.8 147.5 182.7 148.4Q185.5 149.3 187.8 151.1Q190.0 152.9 191.4 155.5Q192.7 158.1 193.1 161.4ZM234.1 167.1L234.1 167.1Q234.1 173.4 231.8 177.8Q229.4 182.2 225.3 184.5Q221.3 186.8 216.2 186.8L216.2 186.8Q211.1 186.8 207.0 184.5Q203.0 182.2 200.6 177.8Q198.3 173.4 198.3 167.1L198.3 167.1Q198.3 160.9 200.6 156.5Q203.0 152.1 207.0 149.8Q211.1 147.5 216.2 147.5L216.2 147.5Q221.3 147.5 225.3 149.8Q229.4 152.1 231.8 156.5Q234.1 160.9 234.1 167.1ZM225.9 167.1L225.9 167.1Q225.9 163.1 224.7 160.3Q223.5 157.5 221.3 156.1Q219.1 154.6 216.2 154.6L216.2 154.6Q213.3 154.6 211.1 156.1Q208.9 157.5 207.7 160.3Q206.5 163.1 206.5 167.1L206.5 167.1Q206.5 171.2 207.7 174.0Q208.9 176.8 211.1 178.2Q213.3 179.6 216.2 179.6L216.2 179.6Q219.1 179.6 221.3 178.2Q223.5 176.8 224.7 174.0Q225.9 171.2 225.9 167.1ZM240.1 186.3L240.1 148.0L250.1 148.0L260.7 173.7L261.1 173.7L271.6 148.0L281.6 148.0L281.6 186.3L273.8 186.3L273.8 161.4L273.5 161.4L263.6 186.1L258.2 186.1L248.3 161.3L248.0 161.3L248.0 186.3L240.1 186.3ZM314.2 186.3L288.3 186.3L288.3 148.0L314.1 148.0L314.1 154.7L296.4 154.7L296.4 163.8L312.8 163.8L312.8 170.5L296.4 170.5L296.4 179.6L314.2 179.6L314.2 186.3Z M344.5 154.7L332.8 154.7L332.8 148.0L364.2 148.0L364.2 154.7L352.5 154.7L352.5 186.3L344.5 186.3L344.5 154.7ZM402.9 167.1L402.9 167.1Q402.9 173.4 400.6 177.8Q398.2 182.2 394.1 184.5Q390.1 186.8 385.0 186.8L385.0 186.8Q379.9 186.8 375.8 184.5Q371.8 182.2 369.4 177.8Q367.1 173.4 367.1 167.1L367.1 167.1Q367.1 160.9 369.4 156.5Q371.8 152.1 375.8 149.8Q379.9 147.5 385.0 147.5L385.0 147.5Q390.1 147.5 394.1 149.8Q398.2 152.1 400.6 156.5Q402.9 160.9 402.9 167.1ZM394.7 167.1L394.7 167.1Q394.7 163.1 393.5 160.3Q392.3 157.5 390.1 156.1Q387.9 154.6 385.0 154.6L385.0 154.6Q382.1 154.6 379.9 156.1Q377.7 157.5 376.5 160.3Q375.3 163.1 375.3 167.1L375.3 167.1Q375.3 171.2 376.5 174.0Q377.7 176.8 379.9 178.2Q382.1 179.6 385.0 179.6L385.0 179.6Q387.9 179.6 390.1 178.2Q392.3 176.8 393.5 174.0Q394.7 171.2 394.7 167.1Z M422.8 186.3L422.8 148.0L432.8 148.0L443.3 173.7L443.8 173.7L454.3 148.0L464.3 148.0L464.3 186.3L456.5 186.3L456.5 161.4L456.1 161.4L446.2 186.1L440.9 186.1L431.0 161.3L430.7 161.3L430.7 186.3L422.8 186.3ZM482.7 172.7L468.7 148.0L477.8 148.0L486.5 164.5L486.9 164.5L495.6 148.0L504.7 148.0L490.7 172.7L490.7 186.3L482.7 186.3L482.7 172.7Z M556.5 167.1L556.5 167.1Q556.5 173.4 554.1 177.8Q551.8 182.2 547.7 184.5Q543.6 186.8 538.6 186.8L538.6 186.8Q533.5 186.8 529.4 184.5Q525.4 182.2 523.0 177.8Q520.7 173.4 520.7 167.1L520.7 167.1Q520.7 160.9 523.0 156.5Q525.4 152.1 529.4 149.8Q533.5 147.5 538.6 147.5L538.6 147.5Q543.6 147.5 547.7 149.8Q551.8 152.1 554.1 156.5Q556.5 160.9 556.5 167.1ZM548.3 167.1L548.3 167.1Q548.3 163.1 547.1 160.3Q545.9 157.5 543.7 156.1Q541.5 154.6 538.6 154.6L538.6 154.6Q535.6 154.6 533.5 156.1Q531.3 157.5 530.1 160.3Q528.9 163.1 528.9 167.1L528.9 167.1Q528.9 171.2 530.1 174.0Q531.3 176.8 533.5 178.2Q535.6 179.6 538.6 179.6L538.6 179.6Q541.5 179.6 543.7 178.2Q545.9 176.8 547.1 174.0Q548.3 171.2 548.3 167.1ZM570.6 186.3L562.5 186.3L562.5 148.0L587.8 148.0L587.8 154.7L570.6 154.7L570.6 163.8L586.2 163.8L586.2 170.5L570.6 170.5L570.6 186.3ZM601.4 186.3L593.3 186.3L593.3 148.0L618.6 148.0L618.6 154.7L601.4 154.7L601.4 163.8L617.0 163.8L617.0 170.5L601.4 170.5L601.4 186.3ZM624.1 148.0L632.2 148.0L632.2 186.3L624.1 186.3L624.1 148.0ZM672.6 161.4L672.6 161.4L664.4 161.4Q664.2 159.8 663.5 158.6Q662.8 157.3 661.8 156.4Q660.7 155.6 659.3 155.1Q657.8 154.6 656.2 154.6L656.2 154.6Q653.2 154.6 651.0 156.1Q648.8 157.6 647.6 160.4Q646.4 163.2 646.4 167.1L646.4 167.1Q646.4 171.2 647.6 174.0Q648.8 176.8 651.0 178.2Q653.2 179.6 656.1 179.6L656.1 179.6Q657.8 179.6 659.2 179.2Q660.6 178.8 661.6 178.0Q662.7 177.1 663.4 175.9Q664.2 174.7 664.4 173.2L664.4 173.2L672.6 173.2Q672.3 175.9 671.1 178.3Q669.8 180.7 667.7 182.7Q665.5 184.6 662.6 185.7Q659.7 186.8 656.0 186.8L656.0 186.8Q650.9 186.8 646.9 184.5Q642.8 182.2 640.5 177.8Q638.2 173.4 638.2 167.1L638.2 167.1Q638.2 160.9 640.5 156.5Q642.9 152.1 646.9 149.8Q651.0 147.5 656.0 147.5L656.0 147.5Q659.3 147.5 662.2 148.4Q665.0 149.3 667.3 151.1Q669.5 152.9 670.9 155.5Q672.2 158.1 672.6 161.4ZM678.5 148.0L686.5 148.0L686.5 186.3L678.5 186.3L678.5 148.0ZM709.4 156.7L699.8 186.3L691.1 186.3L704.4 148.0L714.8 148.0L728.0 186.3L719.3 186.3L709.7 156.7L709.4 156.7ZM699.3 177.5L699.3 171.2L719.8 171.2L719.8 177.5L699.3 177.5ZM757.1 186.3L732.6 186.3L732.6 148.0L740.7 148.0L740.7 179.6L757.1 179.6L757.1 186.3Z M260.0 250.0L251.9 250.0L251.9 211.7L267.0 211.7Q271.4 211.7 274.5 213.4Q277.5 215.0 279.1 217.9Q280.8 220.9 280.8 224.7L280.8 224.7Q280.8 228.5 279.1 231.4Q277.5 234.3 274.4 236.0Q271.2 237.6 266.8 237.6L266.8 237.6L257.2 237.6L257.2 231.1L265.5 231.1Q267.9 231.1 269.4 230.3Q270.9 229.5 271.7 228.0Q272.4 226.6 272.4 224.7L272.4 224.7Q272.4 222.8 271.7 221.3Q270.9 219.9 269.4 219.1Q267.8 218.3 265.5 218.3L265.5 218.3L260.0 218.3L260.0 250.0ZM321.2 230.9L321.2 230.9Q321.2 237.1 318.9 241.5Q316.5 245.9 312.4 248.2Q308.4 250.5 303.3 250.5L303.3 250.5Q298.2 250.5 294.1 248.2Q290.1 245.9 287.7 241.5Q285.4 237.1 285.4 230.9L285.4 230.9Q285.4 224.6 287.7 220.2Q290.1 215.8 294.1 213.5Q298.2 211.2 303.3 211.2L303.3 211.2Q308.4 211.2 312.4 213.5Q316.5 215.8 318.9 220.2Q321.2 224.6 321.2 230.9ZM313.0 230.9L313.0 230.9Q313.0 226.8 311.8 224.0Q310.6 221.2 308.4 219.8Q306.2 218.3 303.3 218.3L303.3 218.3Q300.4 218.3 298.2 219.8Q296.0 221.2 294.8 224.0Q293.6 226.8 293.6 230.9L293.6 230.9Q293.6 234.9 294.8 237.7Q296.0 240.5 298.2 241.9Q300.4 243.4 303.3 243.4L303.3 243.4Q306.2 243.4 308.4 241.9Q310.6 240.5 311.8 237.7Q313.0 234.9 313.0 230.9ZM335.3 250.0L327.2 250.0L327.2 211.7L342.3 211.7Q346.6 211.7 349.7 213.3Q352.8 214.8 354.4 217.6Q356.0 220.4 356.0 224.2L356.0 224.2Q356.0 228.0 354.4 230.8Q352.7 233.5 349.6 235.0Q346.5 236.4 342.1 236.4L342.1 236.4L332.0 236.4L332.0 229.9L340.8 229.9Q343.1 229.9 344.6 229.3Q346.2 228.6 346.9 227.4Q347.7 226.1 347.7 224.2L347.7 224.2Q347.7 222.3 346.9 221.0Q346.2 219.7 344.6 219.0Q343.1 218.3 340.8 218.3L340.8 218.3L335.3 218.3L335.3 250.0ZM339.2 232.6L347.9 232.6L357.4 250.0L348.5 250.0L339.2 232.6ZM372.0 218.4L360.3 218.4L360.3 211.7L391.7 211.7L391.7 218.4L380.0 218.4L380.0 250.0L372.0 250.0L372.0 218.4ZM405.0 250.0L396.9 250.0L396.9 211.7L422.3 211.7L422.3 218.4L405.0 218.4L405.0 227.5L420.6 227.5L420.6 234.2L405.0 234.2L405.0 250.0ZM462.9 230.9L462.9 230.9Q462.9 237.1 460.6 241.5Q458.2 245.9 454.1 248.2Q450.1 250.5 445.0 250.5L445.0 250.5Q439.9 250.5 435.8 248.2Q431.8 245.9 429.4 241.5Q427.1 237.1 427.1 230.9L427.1 230.9Q427.1 224.6 429.4 220.2Q431.8 215.8 435.8 213.5Q439.9 211.2 445.0 211.2L445.0 211.2Q450.1 211.2 454.1 213.5Q458.2 215.8 460.6 220.2Q462.9 224.6 462.9 230.9ZM454.7 230.9L454.7 230.9Q454.7 226.8 453.5 224.0Q452.3 221.2 450.1 219.8Q447.9 218.3 445.0 218.3L445.0 218.3Q442.1 218.3 439.9 219.8Q437.7 221.2 436.5 224.0Q435.3 226.8 435.3 230.9L435.3 230.9Q435.3 234.9 436.5 237.7Q437.7 240.5 439.9 241.9Q442.1 243.4 445.0 243.4L445.0 243.4Q447.9 243.4 450.1 241.9Q452.3 240.5 453.5 237.7Q454.7 234.9 454.7 230.9ZM493.4 250.0L468.9 250.0L468.9 211.7L477.0 211.7L477.0 243.3L493.4 243.3L493.4 250.0ZM498.8 211.7L506.9 211.7L506.9 250.0L498.8 250.0L498.8 211.7ZM548.7 230.9L548.7 230.9Q548.7 237.1 546.4 241.5Q544.0 245.9 539.9 248.2Q535.9 250.5 530.8 250.5L530.8 250.5Q525.7 250.5 521.7 248.2Q517.6 245.9 515.2 241.5Q512.9 237.1 512.9 230.9L512.9 230.9Q512.9 224.6 515.2 220.2Q517.6 215.8 521.7 213.5Q525.7 211.2 530.8 211.2L530.8 211.2Q535.9 211.2 539.9 213.5Q544.0 215.8 546.4 220.2Q548.7 224.6 548.7 230.9ZM540.5 230.9L540.5 230.9Q540.5 226.8 539.3 224.0Q538.1 221.2 535.9 219.8Q533.7 218.3 530.8 218.3L530.8 218.3Q527.9 218.3 525.7 219.8Q523.5 221.2 522.3 224.0Q521.1 226.8 521.1 230.9L521.1 230.9Q521.1 234.9 522.3 237.7Q523.5 240.5 525.7 241.9Q527.9 243.4 530.8 243.4L530.8 243.4Q533.7 243.4 535.9 241.9Q538.1 240.5 539.3 237.7Q540.5 234.9 540.5 230.9Z "/></svg>