<svg width="1200" height="630" viewBox="0 0 1200 630" xmlns="http://www.w3.org/2000/svg"><mask id="satori_om-id"><rect x="0" y="0" width="1200" height="630" fill="#fff"/></mask><rect x="0" y="0" width="1200" height="630" fill="#0164d5"/><mask id="satori_om-id-0"><rect x="600" y="230" width="0" height="0" fill="#fff"/></mask><mask id="satori_om-id-1"><rect x="83" y="230" width="1034" height="170" fill="#fff"/></mask><mask id="satori_om-id-1-0"><rect x="83" y="283" width="1034" height="64" fill="#fff"/></mask><path fill="white" d="M102.8 332.3L94.9 332.3L84.0 294.0L92.8 294.0L99.2 320.6L99.5 320.6L106.5 294.0L114.1 294.0L121.0 320.7L121.4 320.7L127.7 294.0L136.5 294.0L125.6 332.3L117.7 332.3L110.4 307.2L110.1 307.2L102.8 332.3ZM166.7 332.3L140.9 332.3L140.9 294.0L166.7 294.0L166.7 300.7L149.0 300.7L149.0 309.8L165.3 309.8L165.3 316.5L149.0 316.5L149.0 325.6L166.7 325.6L166.7 332.3ZM197.6 332.3L173.1 332.3L173.1 294.0L181.2 294.0L181.2 325.6L197.6 325.6L197.6 332.3ZM235.3 307.4L235.3 307.4L227.1 307.4Q226.9 305.8 226.2 304.6Q225.5 303.3 224.4 302.4Q223.3 301.6 221.9 301.1Q220.5 300.6 218.9 300.6L218.9 300.6Q215.9 300.6 213.7 302.1Q211.5 303.6 210.2 306.4Q209.0 309.2 209.0 313.1L209.0 313.1Q209.0 317.2 210.3 320.0Q211.5 322.8 213.7 324.2Q215.9 325.6 218.8 325.6L218.8 325.6Q220.4 325.6 221.8 325.2Q223.2 324.8 224.3 324.0Q225.4 323.1 226.1 321.9Q226.8 320.7 227.1 319.2L227.1 319.2L235.3 319.2Q235.0 321.9 233.7 324.3Q232.4 326.7 230.3 328.7Q228.2 330.6 225.3 331.7Q222.3 332.8 218.7 332.8L218.7 332.8Q213.5 332.8 209.5 330.5Q205.5 328.2 203.2 323.8Q200.8 319.4 200.8 313.1L200.8 313.1Q200.8 306.9 203.2 302.5Q205.5 298.1 209.6 295.8Q213.6 293.5 218.7 293.5L218.7 293.5Q222.0 293.5 224.8 294.4Q227.7 295.3 229.9 297.1Q232.1 298.9 233.5 301.5Q234.9 304.1 235.3 307.4ZM276.3 313.1L276.3 313.1Q276.3 319.4 273.9 323.8Q271.6 328.2 267.5 330.5Q263.4 332.8 258.4 332.8L258.4 332.8Q253.3 332.8 249.2 330.5Q245.1 328.2 242.8 323.8Q240.4 319.4 240.4 313.1L240.4 313.1Q240.4 306.9 242.8 302.5Q245.1 298.1 249.2 295.8Q253.3 293.5 258.4 293.5L258.4 293.5Q263.4 293.5 267.5 295.8Q271.6 298.1 273.9 302.5Q276.3 306.9 276.3 313.1ZM268.1 313.1L268.1 313.1Q268.1 309.1 266.9 306.3Q265.7 303.5 263.5 302.1Q261.3 300.6 258.4 300.6L258.4 300.6Q255.4 300.6 253.2 302.1Q251.0 303.5 249.8 306.3Q248.6 309.1 248.6 313.1L248.6 313.1Q248.6 317.2 249.8 320.0Q251.0 322.8 253.2 324.2Q255.4 325.6 258.4 325.6L258.4 325.6Q261.3 325.6 263.5 324.2Q265.7 322.8 266.9 320.0Q268.1 317.2 268.1 313.1ZM282.3 332.3L282.3 294.0L292.3 294.0L302.8 319.7L303.2 319.7L313.8 294.0L323.8 294.0L323.8 332.3L315.9 332.3L315.9 307.4L315.6 307.4L305.7 332.1L300.3 332.1L290.4 307.3L290.1 307.3L290.1 332.3L282.3 332.3ZM356.3 332.3L330.4 332.3L330.4 294.0L356.2 294.0L356.2 300.7L338.5 300.7L338.5 309.8L354.9 309.8L354.9 316.5L338.5 316.5L338.5 325.6L356.3 325.6L356.3 332.3Z M386.7 300.7L374.9 300.7L374.9 294.0L406.4 294.0L406.4 300.7L394.7 300.7L394.7 332.3L386.7 332.3L386.7 300.7ZM445.1 313.1L445.1 313.1Q445.1 319.4 442.7 323.8Q440.3 328.2 436.3 330.5Q432.2 332.8 427.1 332.8L427.1 332.8Q422.0 332.8 418.0 330.5Q413.9 328.2 411.6 323.8Q409.2 319.4 409.2 313.1L409.2 313.1Q409.2 306.9 411.6 302.5Q413.9 298.1 418.0 295.8Q422.0 293.5 427.1 293.5L427.1 293.5Q432.2 293.5 436.3 295.8Q440.3 298.1 442.7 302.5Q445.1 306.9 445.1 313.1ZM436.9 313.1L436.9 313.1Q436.9 309.1 435.6 306.3Q434.4 303.5 432.3 302.1Q430.1 300.6 427.1 300.6L427.1 300.6Q424.2 300.6 422.0 302.1Q419.8 303.5 418.6 306.3Q417.4 309.1 417.4 313.1L417.4 313.1Q417.4 317.2 418.6 320.0Q419.8 322.8 422.0 324.2Q424.2 325.6 427.1 325.6L427.1 325.6Q430.1 325.6 432.3 324.2Q434.4 322.8 435.6 320.0Q436.9 317.2 436.9 313.1Z M465.0 332.3L465.0 294.0L474.9 294.0L485.5 319.7L485.9 319.7L496.5 294.0L506.5 294.0L506.5 332.3L498.6 332.3L498.6 307.4L498.3 307.4L488.4 332.1L483.0 332.1L473.1 307.3L472.8 307.3L472.8 332.3L465.0 332.3ZM524.8 318.7L510.9 294.0L519.9 294.0L528.7 310.5L529.0 310.5L537.8 294.0L546.8 294.0L532.9 318.7L532.9 332.3L524.8 332.3L524.8 318.7Z M598.7 313.1L598.7 313.1Q598.7 319.4 596.3 323.8Q593.9 328.2 589.9 330.5Q585.8 332.8 580.7 332.8L580.7 332.8Q575.6 332.8 571.6 330.5Q567.5 328.2 565.2 323.8Q562.8 319.4 562.8 313.1L562.8 313.1Q562.8 306.9 565.2 302.5Q567.5 298.1 571.6 295.8Q575.6 293.5 580.7 293.5L580.7 293.5Q585.8 293.5 589.9 295.8Q593.9 298.1 596.3 302.5Q598.7 306.9 598.7 313.1ZM590.4 313.1L590.4 313.1Q590.4 309.1 589.2 306.3Q588.0 303.5 585.8 302.1Q583.7 300.6 580.7 300.6L580.7 300.6Q577.8 300.6 575.6 302.1Q573.4 303.5 572.2 306.3Q571.0 309.1 571.0 313.1L571.0 313.1Q571.0 317.2 572.2 320.0Q573.4 322.8 575.6 324.2Q577.8 325.6 580.7 325.6L580.7 325.6Q583.7 325.6 585.8 324.2Q588.0 322.8 589.2 320.0Q590.4 317.2 590.4 313.1ZM612.7 332.3L604.6 332.3L604.6 294.0L630.0 294.0L630.0 300.7L612.7 300.7L612.7 309.8L628.3 309.8L628.3 316.5L612.7 316.5L612.7 332.3ZM643.5 332.3L635.4 332.3L635.4 294.0L660.8 294.0L660.8 300.7L643.5 300.7L643.5 309.8L659.1 309.8L659.1 316.5L643.5 316.5L643.5 332.3ZM666.2 294.0L674.3 294.0L674.3 332.3L666.2 332.3L666.2 294.0ZM714.8 307.4L714.8 307.4L706.6 307.4Q706.4 305.8 705.7 304.6Q705.0 303.3 703.9 302.4Q702.8 301.6 701.4 301.1Q700.0 300.6 698.3 300.6L698.3 300.6Q695.4 300.6 693.2 302.1Q691.0 303.6 689.7 306.4Q688.5 309.2 688.5 313.1L688.5 313.1Q688.5 317.2 689.8 320.0Q691.0 322.8 693.2 324.2Q695.4 325.6 698.3 325.6L698.3 325.6Q699.9 325.6 701.3 325.2Q702.7 324.8 703.8 324.0Q704.9 323.1 705.6 321.9Q706.3 320.7 706.6 319.2L706.6 319.2L714.8 319.2Q714.5 321.9 713.2 324.3Q711.9 326.7 709.8 328.7Q707.7 330.6 704.8 331.7Q701.8 332.8 698.2 332.8L698.2 332.8Q693.0 332.8 689.0 330.5Q685.0 328.2 682.7 323.8Q680.3 319.4 680.3 313.1L680.3 313.1Q680.3 306.9 682.7 302.5Q685.0 298.1 689.1 295.8Q693.1 293.5 698.2 293.5L698.2 293.5Q701.5 293.5 704.3 294.4Q707.2 295.3 709.4 297.1Q711.6 298.9 713.0 301.5Q714.4 304.1 714.8 307.4ZM720.6 294.0L728.7 294.0L728.7 332.3L720.6 332.3L720.6 294.0ZM751.6 302.7L742.0 332.3L733.3 332.3L746.5 294.0L756.9 294.0L770.1 332.3L761.5 332.3L751.9 302.7L751.6 302.7ZM741.4 323.5L741.4 317.2L761.9 317.2L761.9 323.5L741.4 323.5ZM799.3 332.3L774.7 332.3L774.7 294.0L782.8 294.0L782.8 325.6L799.3 325.6L799.3 332.3Z M824.9 332.3L816.8 332.3L816.8 294.0L831.9 294.0Q836.3 294.0 839.4 295.6Q842.4 297.3 844.0 300.2Q845.7 303.2 845.7 307.0L845.7 307.0Q845.7 310.8 844.0 313.7Q842.4 316.6 839.3 318.2Q836.1 319.9 831.7 319.9L831.7 319.9L822.1 319.9L822.1 313.4L830.4 313.4Q832.8 313.4 834.3 312.6Q835.8 311.8 836.6 310.3Q837.3 308.9 837.3 307.0L837.3 307.0Q837.3 305.1 836.6 303.6Q835.8 302.2 834.3 301.4Q832.7 300.6 830.4 300.6L830.4 300.6L824.9 300.6L824.9 332.3ZM886.1 313.1L886.1 313.1Q886.1 319.4 883.8 323.8Q881.4 328.2 877.3 330.5Q873.3 332.8 868.2 332.8L868.2 332.8Q863.1 332.8 859.0 330.5Q855.0 328.2 852.6 323.8Q850.3 319.4 850.3 313.1L850.3 313.1Q850.3 306.9 852.6 302.5Q855.0 298.1 859.0 295.8Q863.1 293.5 868.2 293.5L868.2 293.5Q873.3 293.5 877.3 295.8Q881.4 298.1 883.8 302.5Q886.1 306.9 886.1 313.1ZM877.9 313.1L877.9 313.1Q877.9 309.1 876.7 306.3Q875.5 303.5 873.3 302.1Q871.1 300.6 868.2 300.6L868.2 300.6Q865.3 300.6 863.1 302.1Q860.9 303.5 859.7 306.3Q858.5 309.1 858.5 313.1L858.5 313.1Q858.5 317.2 859.7 320.0Q860.9 322.8 863.1 324.2Q865.3 325.6 868.2 325.6L868.2 325.6Q871.1 325.6 873.3 324.2Q875.5 322.8 876.7 320.0Q877.9 317.2 877.9 313.1ZM900.2 332.3L892.1 332.3L892.1 294.0L907.2 294.0Q911.5 294.0 914.6 295.5Q917.7 297.1 919.3 299.9Q920.9 302.7 920.9 306.5L920.9 306.5Q920.9 310.3 919.3 313.1Q917.6 315.8 914.5 317.2Q911.4 318.7 907.0 318.7L907.0 318.7L896.9 318.7L896.9 312.2L905.7 312.2Q908.0 312.2 909.5 311.6Q911.1 310.9 911.8 309.7Q912.6 308.4 912.6 306.5L912.6 306.5Q912.6 304.6 911.8 303.3Q911.1 302.0 909.5 301.3Q908.0 300.6 905.7 300.6L905.7 300.6L900.2 300.6L900.2 332.3ZM904.0 314.9L912.8 314.9L922.3 332.3L913.4 332.3L904.0 314.9ZM936.9 300.7L925.2 300.7L925.2 294.0L956.6 294.0L956.6 300.7L944.9 300.7L944.9 332.3L936.9 332.3L936.9 300.7ZM969.9 332.3L961.8 332.3L961.8 294.0L987.2 294.0L987.2 300.7L969.9 300.7L969.9 309.8L985.5 309.8L985.5 316.5L969.9 316.5L969.9 332.3ZM1027.8 313.1L1027.8 313.1Q1027.8 319.4 1025.5 323.8Q1023.1 328.2 1019.0 330.5Q1015.0 332.8 1009.9 332.8L1009.9 332.8Q1004.8 332.8 1000.7 330.5Q996.7 328.2 994.3 323.8Q992.0 319.4 992.0 313.1L992.0 313.1Q992.0 306.9 994.3 302.5Q996.7 298.1 1000.7 295.8Q1004.8 293.5 1009.9 293.5L1009.9 293.5Q1015.0 293.5 1019.0 295.8Q1023.1 298.1 1025.5 302.5Q1027.8 306.9 1027.8 313.1ZM1019.6 313.1L1019.6 313.1Q1019.6 309.1 1018.4 306.3Q1017.2 303.5 1015.0 302.1Q1012.8 300.6 1009.9 300.6L1009.9 300.6Q1007.0 300.6 1004.8 302.1Q1002.6 303.5 1001.4 306.3Q1000.2 309.1 1000.2 313.1L1000.2 313.1Q1000.2 317.2 1001.4 320.0Q1002.6 322.8 1004.8 324.2Q1007.0 325.6 1009.9 325.6L1009.9 325.6Q1012.8 325.6 1015.0 324.2Q1017.2 322.8 1018.4 320.0Q1019.6 317.2 1019.6 313.1ZM1058.3 332.3L1033.8 332.3L1033.8 294.0L1041.9 294.0L1041.9 325.6L1058.3 325.6L1058.3 332.3ZM1063.7 294.0L1071.8 294.0L1071.8 332.3L1063.7 332.3L1063.7 294.0ZM1113.6 313.1L1113.6 313.1Q1113.6 319.4 1111.3 323.8Q1108.9 328.2 1104.8 330.5Q1100.8 332.8 1095.7 332.8L1095.7 332.8Q1090.6 332.8 1086.5 330.5Q1082.5 328.2 1080.1 323.8Q1077.8 319.4 1077.8 313.1L1077.8 313.1Q1077.8 306.9 1080.1 302.5Q1082.5 298.1 1086.5 295.8Q1090.6 293.5 1095.7 293.5L1095.7 293.5Q1100.8 293.5 1104.8 295.8Q1108.9 298.1 1111.3 302.5Q1113.6 306.9 1113.6 313.1ZM1105.4 313.1L1105.4 313.1Q1105.4 309.1 1104.2 306.3Q1103.0 303.5 1100.8 302.1Q1098.6 300.6 1095.7 300.6L1095.7 300.6Q1092.8 300.6 1090.6 302.1Q1088.4 303.5 1087.2 306.3Q1086.0 309.1 1086.0 313.1L1086.0 313.1Q1086.0 317.2 1087.2 320.0Q1088.4 322.8 1090.6 324.2Q1092.8 325.6 1095.7 325.6L1095.7 325.6Q1098.6 325.6 1100.8 324.2Q1103.0 322.8 1104.2 320.0Q1105.4 317.2 1105.4 313.1Z "/></svg>